{
	"asset":{
		"generator":"Khronos glTF Blender I/O v4.1.62",
		"version":"2.0"
	},
	"scene":0,
	"scenes":[
		{
			"name":"Scene",
			"nodes":[
				0
			]
		}
	],
	"nodes":[
		{
			"mesh":0,
			"name":"Plane",
			"scale":[
				8,
				8,
				1
			]
		}
	],
	"materials":[
		{
			"doubleSided":true,
			"name":"Material.001",
			"pbrMetallicRoughness":{
				"baseColorFactor":[
					0.01336304098367691,
					0.08921374380588531,
					0.8009701371192932,
					1
				],
				"metallicFactor":0.8027210831642151,
				"roughnessFactor":0.4000000059604645
			}
		}
	],
	"meshes":[
		{
			"name":"Plane",
			"primitives":[
				{
					"attributes":{
						"POSITION":0,
						"NORMAL":1,
						"TEXCOORD_0":2
					},
					"indices":3,
					"material":0
				}
			]
		}
	],
	"accessors":[
		{
			"bufferView":0,
			"componentType":5126,
			"count":1522,
			"max":[
				0.5507535934448242,
				0.5573509931564331,
				0.3063860535621643
			],
			"min":[
				-0.6039129495620728,
				-0.5705264806747437,
				-0.39627882838249207
			],
			"type":"VEC3"
		},
		{
			"bufferView":1,
			"componentType":5126,
			"count":1522,
			"type":"VEC3"
		},
		{
			"bufferView":2,
			"componentType":5126,
			"count":1522,
			"type":"VEC2"
		},
		{
			"bufferView":3,
			"componentType":5123,
			"count":2796,
			"type":"SCALAR"
		}
	],
	"bufferViews":[
		{
			"buffer":0,
			"byteLength":18264,
			"byteOffset":0,
			"target":34962
		},
		{
			"buffer":0,
			"byteLength":18264,
			"byteOffset":18264,
			"target":34962
		},
		{
			"buffer":0,
			"byteLength":12176,
			"byteOffset":36528,
			"target":34962
		},
		{
			"buffer":0,
			"byteLength":5592,
			"byteOffset":48704,
			"target":34963
		}
	],
	"buffers":[
		{
			"byteLength":54296,
			"uri":"l8_v2.bin"
		}
	]
}
